<svg xmlns="http://www.w3.org/2000/svg" xmlns:xlink="http://www.w3.org/1999/xlink" version="1.1" x="0px" y="0px" viewBox="0 0 100 125" style="enable-background:new 0 0 100 100;" xml:space="preserve"><path d="M68.001,22.845c0-3.218-2.618-5.836-5.835-5.836s-5.835,2.618-5.835,5.836s2.618,5.835,5.835,5.835  S68.001,26.062,68.001,22.845z M62.166,26.68c-2.115,0-3.835-1.721-3.835-3.835c0-2.115,1.721-3.836,3.835-3.836  s3.835,1.721,3.835,3.836C66.001,24.959,64.281,26.68,62.166,26.68z"/><path d="M63.166,14.272v-2.978c0-0.553-0.448-1-1-1s-1,0.447-1,1v2.978c0,0.553,0.448,1,1,1S63.166,14.825,63.166,14.272z"/><path d="M68.38,11.941c-0.48-0.273-1.091-0.105-1.364,0.374l-1.475,2.587c-0.273,0.479-0.106,1.091,0.374,1.364  c0.156,0.089,0.326,0.131,0.494,0.131c0.348,0,0.686-0.182,0.87-0.505l1.475-2.587C69.027,12.826,68.86,12.215,68.38,11.941z"/><path d="M68.681,18.986c0.187,0.315,0.52,0.49,0.861,0.49c0.173,0,0.349-0.045,0.509-0.14l2.562-1.518  c0.475-0.281,0.632-0.895,0.351-1.37c-0.281-0.476-0.894-0.633-1.37-0.351l-2.562,1.518C68.557,17.897,68.399,18.511,68.681,18.986z  "/><path d="M74.714,22.636c-0.01-0.553-0.483-1.021-1.017-0.983l-2.978,0.049c-0.552,0.009-0.992,0.464-0.983,1.017  c0.009,0.547,0.455,0.983,1,0.983c0.006,0,0.011,0,0.017,0l2.978-0.049C74.283,23.644,74.723,23.188,74.714,22.636z"/><path d="M72.293,29.396c0.354,0,0.696-0.188,0.878-0.52c0.266-0.484,0.088-1.092-0.396-1.357l-2.611-1.432  c-0.486-0.268-1.092-0.089-1.358,0.396c-0.266,0.484-0.088,1.092,0.396,1.357l2.611,1.432C71.966,29.356,72.13,29.396,72.293,29.396  z"/><path d="M67.364,33.206c0.189,0.308,0.517,0.477,0.853,0.477c0.179,0,0.359-0.048,0.523-0.148c0.47-0.289,0.617-0.905,0.328-1.375  l-1.56-2.537c-0.29-0.472-0.906-0.619-1.376-0.328c-0.47,0.289-0.617,0.905-0.328,1.375L67.364,33.206z"/><path d="M62.418,30.412c-0.552,0.018-0.985,0.48-0.966,1.032l0.099,2.977c0.018,0.541,0.462,0.967,0.999,0.967  c0.011,0,0.022,0,0.034-0.001c0.552-0.018,0.985-0.48,0.966-1.032l-0.099-2.977C63.433,30.826,62.961,30.368,62.418,30.412z"/><path d="M56.318,33.948c0.148,0.078,0.308,0.115,0.465,0.115c0.359,0,0.707-0.194,0.886-0.534l1.388-2.635  c0.257-0.488,0.07-1.093-0.419-1.351c-0.488-0.256-1.093-0.069-1.351,0.419l-1.388,2.635C55.642,33.086,55.83,33.69,56.318,33.948z"/><path d="M52.431,30.058c0.184,0,0.37-0.051,0.537-0.157l2.51-1.602c0.465-0.297,0.602-0.915,0.305-1.381  c-0.296-0.465-0.915-0.602-1.381-0.305l-2.51,1.602c-0.465,0.297-0.602,0.915-0.305,1.381  C51.778,29.895,52.101,30.058,52.431,30.058z"/><path d="M49.632,23.471c0.026,0.535,0.468,0.95,0.998,0.95c0.017,0,0.034,0,0.051-0.001l2.974-0.148  c0.552-0.027,0.977-0.497,0.949-1.049c-0.027-0.553-0.488-0.979-1.048-0.949l-2.974,0.148  C50.029,22.449,49.604,22.919,49.632,23.471z"/><path d="M50.966,17.183c-0.249,0.493-0.051,1.095,0.441,1.344l2.657,1.343c0.145,0.073,0.299,0.107,0.45,0.107  c0.365,0,0.717-0.201,0.894-0.549c0.249-0.493,0.051-1.095-0.441-1.344l-2.657-1.343C51.815,16.492,51.216,16.689,50.966,17.183z"/><path d="M57.436,16.696c0.189,0,0.381-0.054,0.551-0.166c0.461-0.305,0.587-0.926,0.282-1.386l-1.644-2.483  C56.32,12.2,55.7,12.073,55.24,12.379c-0.461,0.305-0.587,0.926-0.282,1.386l1.644,2.483C56.793,16.539,57.112,16.696,57.436,16.696  z"/><path d="M88.965,53.777c-0.144,0.006-4.714,0.233-11.91,1.516v-2.466c0.192,0.011,0.403,0.018,0.636,0.018  c1.466,0,3.636-0.278,5.073-1.715c2.296-2.296,1.634-6.463,1.605-6.64c-0.07-0.422-0.4-0.752-0.822-0.822  c-0.123-0.02-2.211-0.348-4.24,0.248c0.51-0.851,0.891-1.843,0.891-2.923c0-3.248-3.415-5.726-3.56-5.829  c-0.348-0.248-0.815-0.248-1.163,0c-0.145,0.104-3.56,2.581-3.56,5.829c0,1.083,0.383,2.077,0.894,2.929  c-2.035-0.605-4.136-0.275-4.259-0.254c-0.422,0.07-0.752,0.4-0.822,0.822c-0.029,0.177-0.691,4.344,1.604,6.64  c1.438,1.437,3.607,1.715,5.073,1.715c0.24,0,0.455-0.008,0.651-0.019v2.839c-4.458,0.862-9.751,2.108-15.526,3.902  c-2.869-1.398-5.717-2.645-8.514-3.766v-2.903c0.192,0.011,0.403,0.018,0.636,0.018c1.465,0,3.636-0.278,5.073-1.715  c2.296-2.296,1.634-6.463,1.604-6.64c-0.07-0.422-0.4-0.752-0.822-0.822c-0.124-0.021-2.211-0.349-4.239,0.247  c0.509-0.851,0.89-1.842,0.89-2.922c0-3.248-3.415-5.726-3.56-5.829c-0.348-0.248-0.815-0.248-1.163,0  c-0.145,0.104-3.56,2.581-3.56,5.829c0,1.083,0.383,2.077,0.894,2.929c-2.034-0.605-4.135-0.275-4.26-0.255  c-0.422,0.07-0.752,0.4-0.822,0.822c-0.029,0.177-0.691,4.344,1.605,6.64c1.437,1.437,3.607,1.715,5.073,1.715  c0.24,0,0.455-0.008,0.651-0.019v2.123c-9.147-3.495-17.626-5.601-24.242-6.859v-2.329c0.192,0.011,0.404,0.018,0.637,0.018  c1.466,0,3.635-0.278,5.071-1.715c2.296-2.296,1.634-6.464,1.604-6.64c-0.07-0.422-0.401-0.752-0.822-0.822  c-0.124-0.02-2.211-0.348-4.24,0.249c0.51-0.851,0.891-1.843,0.891-2.923c0-3.246-3.415-5.726-3.56-5.829  c-0.348-0.248-0.815-0.248-1.163,0c-0.146,0.104-3.56,2.583-3.56,5.829c0,1.083,0.383,2.078,0.895,2.93  c-2.034-0.605-4.135-0.275-4.26-0.255c-0.421,0.07-0.752,0.4-0.822,0.822c-0.029,0.176-0.692,4.344,1.604,6.64  c1.437,1.437,3.605,1.715,5.071,1.715c0.241,0,0.456-0.008,0.653-0.019v1.964c-7.113-1.245-11.622-1.46-11.724-1.464  c-0.538-0.02-1.017,0.404-1.041,0.957c-0.023,0.552,0.405,1.018,0.957,1.041c0.224,0.01,22.04,1.059,45.786,12.132  c-3.146,1.048-6.412,2.261-9.745,3.659c-14.269-6.146-27.374-8.832-35.862-10.001c-0.542-0.079-1.052,0.306-1.127,0.854  c-0.075,0.547,0.307,1.052,0.854,1.127c8.016,1.105,20.209,3.588,33.585,9.12c-2.86,1.271-5.759,2.684-8.663,4.251  c-7.876-3.082-16.15-5.475-24.595-7.111c-0.545-0.106-1.067,0.25-1.172,0.791c-0.105,0.542,0.25,1.067,0.792,1.172  c7.771,1.506,15.39,3.669,22.684,6.419c-2.547,1.446-5.091,3.013-7.611,4.714c-4.743-1.735-9.667-3.24-14.643-4.47  c-0.534-0.131-1.078,0.194-1.21,0.73c-0.133,0.536,0.195,1.078,0.731,1.211c4.441,1.098,8.832,2.426,13.093,3.934  c-4.674,3.308-9.242,7.083-13.56,11.402c-0.391,0.391-0.391,1.023,0,1.414c0.195,0.195,0.451,0.293,0.707,0.293  s0.512-0.098,0.707-0.293c31.609-31.609,76.881-33.881,77.335-33.9c0.552-0.023,0.98-0.489,0.957-1.041  C89.982,54.182,89.527,53.727,88.965,53.777z M82.463,45.567c0.054,1.077-0.018,3.053-1.114,4.149  c-1.035,1.033-2.948,1.175-4.143,1.12c-0.054-1.077,0.018-3.053,1.114-4.149C79.355,45.653,81.265,45.51,82.463,45.567z   M76.051,37.272c0.799,0.723,2.146,2.171,2.146,3.722c0,1.463-1.247,2.915-2.138,3.722c-0.799-0.723-2.146-2.171-2.146-3.722  C73.913,39.531,75.16,38.079,76.051,37.272z M74.893,50.836c-1.199,0.065-3.112-0.084-4.148-1.119  c-1.036-1.036-1.18-2.949-1.12-4.148c1.2-0.067,3.112,0.083,4.148,1.119S74.953,49.637,74.893,50.836z M56.423,45.639  c0.054,1.077-0.018,3.053-1.114,4.149c-1.036,1.035-2.945,1.186-4.148,1.119c-0.06-1.199,0.083-3.112,1.12-4.148  C53.315,45.725,55.224,45.584,56.423,45.639z M50.011,37.344c0.799,0.723,2.146,2.171,2.146,3.722c0,1.463-1.247,2.915-2.138,3.722  c-0.799-0.723-2.146-2.171-2.146-3.722C47.873,39.603,49.12,38.15,50.011,37.344z M48.853,50.907  c-1.2,0.066-3.112-0.084-4.148-1.119c-1.036-1.036-1.18-2.949-1.12-4.148c1.203-0.066,3.113,0.083,4.148,1.119  C48.769,47.795,48.913,49.708,48.853,50.907z M30.187,38.573c0.06,1.199-0.083,3.112-1.12,4.148s-2.944,1.185-4.148,1.119  c-0.06-1.199,0.083-3.111,1.12-4.147S28.988,38.51,30.187,38.573z M23.772,30.274c0.891,0.806,2.142,2.26,2.142,3.725  c0,1.466-1.25,2.92-2.142,3.726c-0.891-0.806-2.142-2.26-2.142-3.726C21.631,32.534,22.881,31.08,23.772,30.274z M22.611,43.841  c-1.196,0.064-3.112-0.083-4.148-1.119s-1.18-2.949-1.12-4.148c1.197-0.062,3.112,0.084,4.148,1.12  C22.527,40.729,22.671,42.642,22.611,43.841z"/><path d="M88.87,61.564c-13.885,1.914-40.614,7.919-63.611,26.63c-0.429,0.349-0.493,0.979-0.145,1.406  c0.198,0.243,0.486,0.369,0.776,0.369c0.222,0,0.445-0.073,0.63-0.225c22.62-18.403,48.944-24.314,62.623-26.2  c0.547-0.075,0.929-0.58,0.854-1.127C89.921,61.87,89.412,61.481,88.87,61.564z"/><path d="M89.989,70.596c-0.105-0.542-0.631-0.897-1.172-0.791c-11.906,2.308-29.668,7.36-46.673,18.323  c-0.464,0.3-0.598,0.919-0.298,1.383c0.191,0.297,0.513,0.458,0.841,0.458c0.186,0,0.374-0.052,0.541-0.159  c16.737-10.79,34.236-15.767,45.97-18.042C89.739,71.663,90.094,71.138,89.989,70.596z"/><path d="M89.978,79.16c-0.133-0.536-0.679-0.862-1.211-0.73c-9.524,2.355-18.619,5.625-27.032,9.718  c-0.497,0.242-0.703,0.84-0.462,1.337c0.173,0.355,0.529,0.562,0.9,0.562c0.146,0,0.295-0.032,0.437-0.101  c8.287-4.031,17.249-7.253,26.637-9.575C89.783,80.238,90.11,79.696,89.978,79.16z"/><text x="0" y="115" fill="#000000" font-size="5px" font-weight="bold" font-family="'Helvetica Neue', Helvetica, Arial-Unicode, Arial, Sans-serif">Created by Made</text><text x="0" y="120" fill="#000000" font-size="5px" font-weight="bold" font-family="'Helvetica Neue', Helvetica, Arial-Unicode, Arial, Sans-serif">from the Noun Project</text></svg>